<?xml version="1.0" standalone="no"?>
<!DOCTYPE svg PUBLIC "-//W3C//DTD SVG 20010904//EN"
 "http://www.w3.org/TR/2001/REC-SVG-20010904/DTD/svg10.dtd">
<svg version="1.0" xmlns="http://www.w3.org/2000/svg"
 width="192.000000pt" height="192.000000pt" viewBox="0 0 192.000000 192.000000"
 preserveAspectRatio="xMidYMid meet">
<metadata>
Created by potrace 1.11, written by Peter Selinger 2001-2013
</metadata>
<g transform="translate(0.000000,192.000000) scale(0.100000,-0.100000)"
fill="#000000" stroke="none">
<path d="M935 1900 c-4 -6 -11 -8 -16 -5 -5 4 -9 1 -9 -5 0 -6 -4 -9 -9 -5 -5
3 -12 1 -16 -5 -4 -6 -11 -8 -16 -5 -5 4 -9 2 -9 -4 0 -6 -6 -8 -14 -5 -7 3
-20 -1 -27 -9 -8 -7 -20 -12 -27 -9 -6 2 -12 -2 -12 -9 0 -7 -3 -10 -6 -6 -4
3 -22 0 -41 -8 -19 -8 -39 -12 -44 -9 -5 3 -9 0 -9 -6 0 -6 -4 -8 -10 -5 -5 3
-10 1 -10 -6 0 -7 -3 -9 -7 -6 -3 4 -12 2 -20 -4 -7 -6 -13 -8 -13 -4 0 4 -7
2 -15 -5 -8 -7 -15 -10 -15 -7 0 3 -13 1 -30 -4 -16 -6 -28 -14 -25 -19 2 -4
-3 -7 -13 -7 -38 0 -53 -3 -48 -11 2 -4 -4 -9 -15 -10 -10 -1 -28 -3 -39 -4
-11 -1 -20 -5 -20 -9 0 -4 -15 -10 -32 -14 -18 -4 -36 -9 -40 -10 -5 -1 -13
-3 -19 -4 -5 0 -8 -5 -4 -10 3 -6 -3 -10 -12 -10 -39 -1 -53 -5 -53 -13 0 -5
-5 -6 -11 -2 -6 3 -25 -4 -41 -16 -17 -13 -27 -16 -23 -9 8 12 6 12 -8 1 -9
-8 -21 -11 -26 -8 -5 4 -12 2 -16 -4 -4 -6 -11 -8 -16 -5 -5 4 -9 1 -9 -4 0
-6 -7 -11 -16 -11 -14 0 -14 -3 -4 -15 10 -12 10 -15 -1 -15 -11 0 -11 -2 1
-10 8 -5 11 -10 6 -10 -5 0 -3 -7 4 -15 7 -8 8 -15 3 -15 -5 0 -9 -9 -9 -20 0
-11 3 -20 7 -20 4 0 6 -13 5 -30 -1 -16 3 -30 8 -30 6 0 4 -5 -4 -10 -9 -6
-10 -10 -3 -10 6 0 10 -9 8 -20 -2 -11 -1 -22 3 -24 4 -2 7 -25 7 -50 -1 -25
2 -46 6 -46 4 0 4 -13 -1 -30 -5 -18 -5 -32 1 -36 5 -3 7 -9 5 -13 -3 -4 -1
-13 4 -21 5 -9 5 -19 -2 -27 -6 -7 -6 -13 -1 -13 8 0 13 -33 16 -107 0 -7 3
-13 7 -13 3 0 6 -22 6 -50 -1 -27 1 -50 4 -50 4 0 5 -18 4 -40 -1 -22 3 -40 9
-40 5 0 5 -5 -2 -13 -6 -8 -8 -17 -4 -21 4 -4 9 -33 11 -64 2 -31 9 -60 15
-64 9 -6 8 -8 -1 -8 -8 0 -10 -5 -6 -12 8 -12 14 -59 17 -135 1 -24 5 -43 9
-43 5 0 7 -3 7 -7 -3 -21 3 -33 16 -33 9 0 18 -6 21 -14 3 -9 12 -12 21 -9 11
4 14 2 9 -5 -5 -8 0 -12 13 -12 12 0 21 -4 21 -10 0 -5 7 -10 15 -10 8 0 15
-5 15 -11 0 -5 4 -8 9 -4 5 3 17 -2 25 -11 9 -8 16 -12 16 -8 0 4 9 -1 19 -10
11 -10 25 -15 32 -10 7 4 10 3 5 -4 -5 -9 32 -29 43 -23 2 2 7 -3 12 -11 5 -7
12 -13 16 -13 4 -1 24 -11 43 -23 19 -12 45 -25 57 -28 13 -3 20 -10 17 -15
-3 -5 4 -9 15 -9 12 0 21 -5 21 -11 0 -6 6 -9 14 -6 8 3 29 -8 47 -24 35 -31
44 -36 33 -16 -4 6 2 4 13 -5 11 -10 25 -18 32 -18 7 0 9 -5 6 -10 -3 -6 3
-10 14 -10 12 0 21 -5 21 -10 0 -6 3 -9 8 -9 18 3 33 -2 28 -9 -2 -4 5 -9 17
-9 12 -1 23 -7 25 -13 5 -15 38 -12 56 6 9 8 16 12 16 7 0 -4 4 -3 8 3 4 5 25
18 47 29 22 10 46 24 53 32 8 7 18 11 23 8 5 -4 9 -1 9 5 0 6 5 8 10 5 6 -3
10 -2 10 3 0 10 71 48 79 43 2 -2 8 4 13 13 5 9 13 14 19 11 5 -4 9 -1 9 5 0
6 5 8 10 5 6 -3 10 -1 10 4 0 6 7 11 15 11 8 0 23 9 32 19 9 11 22 17 29 14 8
-3 14 0 14 7 0 6 4 9 9 5 6 -3 14 3 20 12 6 10 11 15 11 11 0 -4 24 7 53 24
28 17 58 31 65 31 6 0 12 7 12 14 0 8 5 11 11 7 6 -3 15 0 20 7 4 8 13 15 19
15 5 1 15 2 21 3 5 0 7 6 3 13 -4 6 -3 9 2 5 13 -7 68 25 73 43 3 8 5 32 5 53
0 20 3 37 7 37 3 0 5 12 4 28 -1 15 2 42 6 60 4 17 3 35 -2 38 -5 3 -3 11 4
19 8 7 13 29 12 49 0 20 4 36 10 36 5 0 3 5 -5 10 -11 7 -11 10 -2 10 7 0 10
4 7 10 -3 5 0 10 7 10 8 0 9 3 3 8 -12 8 -13 41 -2 60 5 6 5 12 0 12 -4 0 -1
5 7 10 8 5 10 10 4 10 -6 0 -10 10 -8 23 1 12 3 22 4 22 1 0 3 14 5 30 7 77
10 95 15 95 4 0 6 10 5 23 -1 12 2 27 7 34 5 7 5 14 -2 18 -7 4 -7 12 0 26 8
14 7 19 -2 19 -10 0 -10 2 1 9 7 5 10 14 7 20 -4 6 -3 11 3 11 7 0 7 8 1 25
-5 14 -6 25 -1 25 5 0 8 16 6 35 -2 19 1 35 6 35 5 0 7 14 5 30 -2 17 0 30 4
30 4 0 6 14 4 30 -2 19 1 30 9 30 8 0 7 4 -3 10 -8 5 -10 10 -5 10 7 0 11 24
10 58 0 48 -3 57 -17 56 -10 -1 -18 2 -18 7 0 5 -6 6 -14 3 -8 -3 -17 0 -21 5
-3 6 -11 9 -16 6 -5 -4 -9 -1 -9 5 0 6 -4 9 -9 5 -5 -3 -13 0 -16 6 -4 5 -13
8 -20 5 -7 -2 -16 2 -19 10 -3 9 -10 13 -16 9 -9 -5 -108 23 -120 35 -3 3 -16
7 -30 9 -14 1 -27 7 -31 12 -3 5 -18 10 -35 12 -16 2 -39 9 -50 15 -12 6 -24
8 -28 5 -3 -3 -6 -1 -6 5 0 7 -8 12 -18 12 -10 0 -22 3 -26 7 -3 4 -14 8 -24
9 -27 2 -47 8 -53 16 -3 5 -17 9 -32 10 -15 1 -27 5 -27 8 0 4 -22 13 -50 20
-27 7 -50 17 -50 21 0 4 -9 6 -19 4 -11 -2 -27 3 -38 10 -10 8 -28 15 -40 15
-13 0 -23 5 -23 11 0 8 -6 7 -17 -2 -11 -10 -14 -10 -9 -1 4 6 5 12 2 12 -3 0
-8 -5 -11 -10z"/>
</g>
</svg>
